<svg width="162" height="156" viewBox="0 0 162 156" fill="none" xmlns="http://www.w3.org/2000/svg">
<path d="M116.034 54.3C116.034 54.4085 116.034 54.5168 116.033 54.625C115.985 59.1341 114.949 63.4235 113.115 67.3151C107.71 78.7854 95.3804 86.8 81.0344 86.8C61.7045 86.8 46.0344 72.2493 46.0344 54.3C46.0344 36.3507 61.7045 21.8 81.0344 21.8C100.364 21.8 116.034 36.3507 116.034 54.3Z" fill="#FEFDFB"/>
<path d="M81.0344 86.8C61.7045 86.8 46.0344 72.2493 46.0344 54.3C45.4678 65.5333 51.6744 88.43 81.0344 90.15C108.783 90.15 115.907 66.6776 116.033 54.625C115.985 59.1341 114.949 63.4235 113.115 67.3151C107.71 78.7854 95.3804 86.8 81.0344 86.8Z" fill="#A0A8BB"/>
<path fill-rule="evenodd" clip-rule="evenodd" d="M79.7236 55.1568C80.2236 55.3734 81.4836 55.6768 82.5236 55.1568L91.8736 49.6068C92.3902 49.0568 93.3836 47.6268 93.2236 46.3068C93.2736 45.8734 93.6536 45.1168 94.7736 45.5568C95.1589 45.9297 95.8928 46.4973 96.4236 46.5128C96.6044 46.5181 96.7617 46.4593 96.8736 46.3068C97.3402 45.8068 97.9236 44.6068 96.5236 43.8068L82.5236 35.1568C82.0569 34.8568 80.8436 34.4368 79.7236 35.1568L65.2236 44.1568C64.7236 44.4568 64.7736 45.3568 65.2236 45.9568C65.3507 46.1021 65.562 46.3711 65.8736 46.4241C66.1338 46.4683 66.464 46.3618 66.8736 45.9068C67.3902 45.3901 68.5236 44.7368 68.9236 46.2568C68.9266 46.3321 68.9326 46.416 68.9419 46.5068C69.0362 47.4191 69.473 49.0291 70.6736 49.7568L79.7236 55.1568ZM79.7236 52.1568C80.4036 52.8368 81.8736 52.4401 82.5236 52.1568L90.3736 47.0568C91.4936 45.4968 90.8402 43.8734 90.3736 43.2568L82.5236 38.1068C81.2436 37.3868 80.1236 37.8068 79.7236 38.1068L71.8236 43.2568C70.3836 44.8568 71.2236 46.4568 71.8236 47.0568L79.7236 52.1568Z" fill="#1A2D33"/>
<path d="M82.5236 41.6568C82.0402 41.4068 80.8036 41.0568 79.7236 41.6568L75.1236 44.4568C74.7902 44.6568 74.3236 45.2268 75.1236 45.9068L76.6236 46.8524L79.9236 44.7568C80.3402 44.4234 81.4436 43.9568 82.5236 44.7568L85.5899 46.8524L87.0736 45.9068C87.3902 45.6734 87.8336 45.0768 87.0736 44.5568L82.5236 41.6568Z" fill="#1A2D33"/>
<path fill-rule="evenodd" clip-rule="evenodd" d="M53.8736 65.2068L78.3736 80.5068C79.2902 80.9901 81.6236 81.6668 83.6236 80.5068L107.924 65.7068C108.594 65.0444 109.386 63.9082 109.714 62.5568C110.103 60.9498 109.836 59.0384 107.924 57.2568L105.624 55.9325L104.624 55.3568C103.944 54.8768 104.34 54.4901 104.624 54.3568L108.524 52.0068C109.058 51.345 109.71 50.1222 109.813 48.7068C109.899 47.5198 109.6 46.1974 108.524 44.9568L83.8236 29.3068C82.9402 28.7734 80.6036 28.0268 78.3236 29.3068L53.9236 44.4568C52.9599 45.408 51.7105 47.4546 52.3993 49.6068C52.6398 50.3579 53.1163 51.122 53.9236 51.8568L57.5236 54.2568C57.9259 54.4568 58.4893 54.9668 57.5236 55.4068C57.1735 55.5409 56.7971 55.7081 56.4122 55.9068C54.0866 57.1069 51.4479 59.4571 52.3993 62.6384C52.64 63.443 53.1103 64.3009 53.8736 65.2068ZM78.3236 32.4068C80.6436 30.6068 82.9569 31.6568 83.8236 32.4068L106.424 46.7068C107.544 48.1068 106.89 49.5568 106.424 50.1068L100.374 53.8568C99.6136 54.6168 100.057 55.3734 100.374 55.6568L106.174 59.3568C107.894 61.1568 106.89 62.9401 106.174 63.6068L83.6236 77.3068C81.8236 79.1568 79.2069 78.0568 78.3736 77.3068L56.0736 63.6068C54.1136 61.5668 55.2569 59.9234 56.0736 59.3568L61.8236 55.9068C62.7836 54.9468 62.2236 54.1401 61.8236 53.8568L56.0736 50.2068C53.5936 47.9668 55.7402 46.1734 57.1236 45.5568C59.2036 44.7968 59.4902 46.2401 59.3736 47.0568C58.1736 48.0568 58.7402 48.7734 59.1736 49.0068L79.7236 61.7068C80.2836 62.1868 81.8236 61.9068 82.5236 61.7068L90.5736 56.8568C93.5236 55.2568 94.4736 57.5068 93.4736 58.7568L82.5236 65.3568C81.3236 65.8368 80.1569 65.5568 79.7236 65.3568L67.1736 57.4068C66.1336 57.0068 65.1736 57.2401 64.8236 57.4068L59.1736 60.6068C58.0936 62.6868 60.0902 62.8401 61.2236 62.6568L64.8236 60.6068C65.6236 60.0868 66.7236 60.3901 67.1736 60.6068L79.7236 68.3068C80.6836 68.6668 81.9902 68.4568 82.5236 68.3068L95.2236 60.6068C96.1036 60.1268 97.1569 60.4068 97.5736 60.6068L100.774 62.5568C103.474 63.5068 103.674 61.4568 102.774 60.6068L97.1236 56.8568C95.5236 55.0168 96.4569 53.3234 97.1236 52.7068L102.774 49.1068C103.814 46.6268 101.74 47.0068 100.574 47.5068L82.5236 58.7568C81.2836 59.3168 80.1402 58.9901 79.7236 58.7568L63.4736 48.5568C60.4336 45.4368 62.2069 42.7234 63.4736 41.7568L78.3236 32.4068Z" fill="#1A2D33"/>
<path d="M79.7236 74.7068C80.1236 74.8401 81.2436 75.0268 82.5236 74.7068L97.9236 65.3568C98.2236 64.5234 98.1836 63.0068 95.6236 63.6068L82.5236 71.7568C82.0402 71.9734 80.8036 72.2768 79.7236 71.7568L66.2236 63.5568C64.2236 63.2768 64.1902 64.6401 64.4236 65.3568L79.7236 74.7068Z" fill="#1A2D33"/>
<path d="M79.7236 48.8068C80.1569 49.1568 81.3236 49.6468 82.5236 48.8068L83.2159 48.3654C81.3699 46.2524 79.6518 47.485 79.0236 48.3654L79.7236 48.8068Z" fill="#1A2D33"/>
<path fill-rule="evenodd" clip-rule="evenodd" d="M83.8236 32.4068C82.9569 31.6568 80.6436 30.6068 78.3236 32.4068L63.4736 41.7568C62.2069 42.7234 60.4336 45.4368 63.4736 48.5568L79.7236 58.7568C80.1402 58.9901 81.2836 59.3168 82.5236 58.7568L100.574 47.5068C101.74 47.0068 103.814 46.6268 102.774 49.1068L97.1236 52.7068C96.4569 53.3234 95.5236 55.0168 97.1236 56.8568L102.774 60.6068C103.674 61.4568 103.474 63.5068 100.774 62.5568L97.5736 60.6068C97.1569 60.4068 96.1036 60.1268 95.2236 60.6068L82.5236 68.3068C81.9902 68.4568 80.6836 68.6668 79.7236 68.3068L67.1736 60.6068C66.7236 60.3901 65.6236 60.0868 64.8236 60.6068L61.2236 62.6568C60.0902 62.8401 58.0936 62.6868 59.1736 60.6068L64.8236 57.4068C65.1736 57.2401 66.1336 57.0068 67.1736 57.4068L79.7236 65.3568C80.1569 65.5568 81.3236 65.8368 82.5236 65.3568L93.4736 58.7568C94.4736 57.5068 93.5236 55.2568 90.5736 56.8568L82.5236 61.7068C81.8236 61.9068 80.2836 62.1868 79.7236 61.7068L59.1736 49.0068C58.7402 48.7734 58.1736 48.0568 59.3736 47.0568C59.4902 46.2401 59.2036 44.7968 57.1236 45.5568C55.7402 46.1734 53.5936 47.9668 56.0736 50.2068L61.8236 53.8568C62.2236 54.1401 62.7836 54.9468 61.8236 55.9068L56.0736 59.3568C55.2569 59.9234 54.1136 61.5668 56.0736 63.6068L78.3736 77.3068C79.2069 78.0568 81.8236 79.1568 83.6236 77.3068L106.174 63.6068C106.89 62.9401 107.894 61.1568 106.174 59.3568L100.374 55.6568C100.057 55.3734 99.6136 54.6168 100.374 53.8568L106.424 50.1068C106.89 49.5568 107.544 48.1068 106.424 46.7068L83.8236 32.4068ZM82.5236 74.7068C81.2436 75.0268 80.1236 74.8401 79.7236 74.7068L64.4236 65.3568C64.1902 64.6401 64.2236 63.2768 66.2236 63.5568L79.7236 71.7568C80.8036 72.2768 82.0402 71.9734 82.5236 71.7568L95.6236 63.6068C98.1836 63.0068 98.2236 64.5234 97.9236 65.3568L82.5236 74.7068ZM82.5236 55.1568C81.4836 55.6768 80.2236 55.3734 79.7236 55.1568L70.6736 49.7568C69.473 49.0291 69.0362 47.4191 68.9419 46.5068C68.5191 47.1516 67.3136 48.0379 65.8736 46.4241C65.562 46.3711 65.3507 46.1021 65.2236 45.9568C64.7736 45.3568 64.7236 44.4568 65.2236 44.1568L79.7236 35.1568C80.8436 34.4368 82.0569 34.8568 82.5236 35.1568L96.5236 43.8068C97.9236 44.6068 97.3402 45.8068 96.8736 46.3068C96.7617 46.4593 96.6044 46.5181 96.4236 46.5128C95.6736 47.2274 93.9836 48.1868 93.2236 46.3068C93.3836 47.6268 92.3902 49.0568 91.8736 49.6068L82.5236 55.1568Z" fill="#FEFDFB"/>
<path d="M94.7736 45.5568C93.6536 45.1168 93.2736 45.8734 93.2236 46.3068C93.9836 48.1868 95.6736 47.2274 96.4236 46.5128C95.8928 46.4973 95.1589 45.9297 94.7736 45.5568Z" fill="#A0A8BB"/>
<path d="M68.9236 46.2568C68.5236 44.7368 67.3902 45.3901 66.8736 45.9068C66.464 46.3618 66.1338 46.4683 65.8736 46.4241C67.3136 48.0379 68.5191 47.1516 68.9419 46.5068C68.9326 46.416 68.9266 46.3321 68.9236 46.2568Z" fill="#A0A8BB"/>
<path d="M57.5236 54.2568L53.9236 51.8568C53.1163 51.122 52.6398 50.3579 52.3993 49.6068V51.8568C52.4832 52.7068 53.4031 54.7068 56.4122 55.9068C56.7971 55.7081 57.1735 55.5409 57.5236 55.4068C58.4893 54.9668 57.9259 54.4568 57.5236 54.2568Z" fill="#A0A8BB"/>
<path d="M78.3736 80.5068L53.8736 65.2068C53.1103 64.3009 52.64 63.443 52.3993 62.6384V65.3568C52.5574 65.9734 53.0836 67.3168 53.9236 67.7568L78.3736 82.8067C79.3069 83.2234 81.6636 83.8067 83.6236 82.8067L107.924 67.9068C108.667 67.3901 110.066 65.5968 109.714 62.5568C109.386 63.9082 108.594 65.0444 107.924 65.7068L83.6236 80.5068C81.6236 81.6668 79.2902 80.9901 78.3736 80.5068Z" fill="#A0A8BB"/>
<path d="M108.524 52.0068L104.624 54.3568C104.34 54.4901 103.944 54.8768 104.624 55.3568L105.624 55.9325C107.374 55.0068 110.074 54.1068 109.813 48.7068C109.71 50.1222 109.058 51.345 108.524 52.0068Z" fill="#A0A8BB"/>
<path d="M79.0236 48.3654C79.6518 47.485 81.3699 46.2524 83.2159 48.3654L85.5899 46.8524L82.5236 44.7568C81.4436 43.9568 80.3402 44.4234 79.9236 44.7568L76.6236 46.8524L79.0236 48.3654Z" fill="#A0A8BB"/>
<path d="M18.6953 116.938H20.8867L26.4766 130.848L32.0547 116.938H34.2578L27.3203 134H25.6094L18.6953 116.938ZM17.9805 116.938H19.9141L20.2305 127.344V134H17.9805V116.938ZM33.0273 116.938H34.9609V134H32.7109V127.344L33.0273 116.938ZM46.082 131.832V125.305C46.082 124.805 45.9805 124.371 45.7773 124.004C45.582 123.629 45.2852 123.34 44.8867 123.137C44.4883 122.934 43.9961 122.832 43.4102 122.832C42.8633 122.832 42.3828 122.926 41.9688 123.113C41.5625 123.301 41.2422 123.547 41.0078 123.852C40.7812 124.156 40.668 124.484 40.668 124.836H38.5C38.5 124.383 38.6172 123.934 38.8516 123.488C39.0859 123.043 39.4219 122.641 39.8594 122.281C40.3047 121.914 40.8359 121.625 41.4531 121.414C42.0781 121.195 42.7734 121.086 43.5391 121.086C44.4609 121.086 45.2734 121.242 45.9766 121.555C46.6875 121.867 47.2422 122.34 47.6406 122.973C48.0469 123.598 48.25 124.383 48.25 125.328V131.234C48.25 131.656 48.2852 132.105 48.3555 132.582C48.4336 133.059 48.5469 133.469 48.6953 133.812V134H46.4336C46.3242 133.75 46.2383 133.418 46.1758 133.004C46.1133 132.582 46.082 132.191 46.082 131.832ZM46.457 126.312L46.4805 127.836H44.2891C43.6719 127.836 43.1211 127.887 42.6367 127.988C42.1523 128.082 41.7461 128.227 41.418 128.422C41.0898 128.617 40.8398 128.863 40.668 129.16C40.4961 129.449 40.4102 129.789 40.4102 130.18C40.4102 130.578 40.5 130.941 40.6797 131.27C40.8594 131.598 41.1289 131.859 41.4883 132.055C41.8555 132.242 42.3047 132.336 42.8359 132.336C43.5 132.336 44.0859 132.195 44.5938 131.914C45.1016 131.633 45.5039 131.289 45.8008 130.883C46.1055 130.477 46.2695 130.082 46.293 129.699L47.2188 130.742C47.1641 131.07 47.0156 131.434 46.7734 131.832C46.5312 132.23 46.207 132.613 45.8008 132.98C45.4023 133.34 44.9258 133.641 44.3711 133.883C43.8242 134.117 43.207 134.234 42.5195 134.234C41.6602 134.234 40.9062 134.066 40.2578 133.73C39.6172 133.395 39.1172 132.945 38.7578 132.383C38.4062 131.812 38.2305 131.176 38.2305 130.473C38.2305 129.793 38.3633 129.195 38.6289 128.68C38.8945 128.156 39.2773 127.723 39.7773 127.379C40.2773 127.027 40.8789 126.762 41.582 126.582C42.2852 126.402 43.0703 126.312 43.9375 126.312H46.457ZM61.1055 132.219V134H51.8828V132.219H61.1055ZM60.7656 122.855L52.375 134H51.0508V132.406L59.3828 121.32H60.7656V122.855ZM59.8047 121.32V123.113H51.1445V121.32H59.8047ZM68.6406 134.234C67.7578 134.234 66.957 134.086 66.2383 133.789C65.5273 133.484 64.9141 133.059 64.3984 132.512C63.8906 131.965 63.5 131.316 63.2266 130.566C62.9531 129.816 62.8164 128.996 62.8164 128.105V127.613C62.8164 126.582 62.9688 125.664 63.2734 124.859C63.5781 124.047 63.9922 123.359 64.5156 122.797C65.0391 122.234 65.6328 121.809 66.2969 121.52C66.9609 121.23 67.6484 121.086 68.3594 121.086C69.2656 121.086 70.0469 121.242 70.7031 121.555C71.3672 121.867 71.9102 122.305 72.332 122.867C72.7539 123.422 73.0664 124.078 73.2695 124.836C73.4727 125.586 73.5742 126.406 73.5742 127.297V128.27H64.1055V126.5H71.4062V126.336C71.375 125.773 71.2578 125.227 71.0547 124.695C70.8594 124.164 70.5469 123.727 70.1172 123.383C69.6875 123.039 69.1016 122.867 68.3594 122.867C67.8672 122.867 67.4141 122.973 67 123.184C66.5859 123.387 66.2305 123.691 65.9336 124.098C65.6367 124.504 65.4062 125 65.2422 125.586C65.0781 126.172 64.9961 126.848 64.9961 127.613V128.105C64.9961 128.707 65.0781 129.273 65.2422 129.805C65.4141 130.328 65.6602 130.789 65.9805 131.188C66.3086 131.586 66.7031 131.898 67.1641 132.125C67.6328 132.352 68.1641 132.465 68.7578 132.465C69.5234 132.465 70.1719 132.309 70.7031 131.996C71.2344 131.684 71.6992 131.266 72.0977 130.742L73.4102 131.785C73.1367 132.199 72.7891 132.594 72.3672 132.969C71.9453 133.344 71.4258 133.648 70.8086 133.883C70.1992 134.117 69.4766 134.234 68.6406 134.234ZM82.7383 116.938V134H80.5117V116.938H82.7383ZM88.2227 116.938V118.789H75.0391V116.938H88.2227ZM96.5664 131.832V125.305C96.5664 124.805 96.4648 124.371 96.2617 124.004C96.0664 123.629 95.7695 123.34 95.3711 123.137C94.9727 122.934 94.4805 122.832 93.8945 122.832C93.3477 122.832 92.8672 122.926 92.4531 123.113C92.0469 123.301 91.7266 123.547 91.4922 123.852C91.2656 124.156 91.1523 124.484 91.1523 124.836H88.9844C88.9844 124.383 89.1016 123.934 89.3359 123.488C89.5703 123.043 89.9062 122.641 90.3438 122.281C90.7891 121.914 91.3203 121.625 91.9375 121.414C92.5625 121.195 93.2578 121.086 94.0234 121.086C94.9453 121.086 95.7578 121.242 96.4609 121.555C97.1719 121.867 97.7266 122.34 98.125 122.973C98.5312 123.598 98.7344 124.383 98.7344 125.328V131.234C98.7344 131.656 98.7695 132.105 98.8398 132.582C98.918 133.059 99.0312 133.469 99.1797 133.812V134H96.918C96.8086 133.75 96.7227 133.418 96.6602 133.004C96.5977 132.582 96.5664 132.191 96.5664 131.832ZM96.9414 126.312L96.9648 127.836H94.7734C94.1562 127.836 93.6055 127.887 93.1211 127.988C92.6367 128.082 92.2305 128.227 91.9023 128.422C91.5742 128.617 91.3242 128.863 91.1523 129.16C90.9805 129.449 90.8945 129.789 90.8945 130.18C90.8945 130.578 90.9844 130.941 91.1641 131.27C91.3438 131.598 91.6133 131.859 91.9727 132.055C92.3398 132.242 92.7891 132.336 93.3203 132.336C93.9844 132.336 94.5703 132.195 95.0781 131.914C95.5859 131.633 95.9883 131.289 96.2852 130.883C96.5898 130.477 96.7539 130.082 96.7773 129.699L97.7031 130.742C97.6484 131.07 97.5 131.434 97.2578 131.832C97.0156 132.23 96.6914 132.613 96.2852 132.98C95.8867 133.34 95.4102 133.641 94.8555 133.883C94.3086 134.117 93.6914 134.234 93.0039 134.234C92.1445 134.234 91.3906 134.066 90.7422 133.73C90.1016 133.395 89.6016 132.945 89.2422 132.383C88.8906 131.812 88.7148 131.176 88.7148 130.473C88.7148 129.793 88.8477 129.195 89.1133 128.68C89.3789 128.156 89.7617 127.723 90.2617 127.379C90.7617 127.027 91.3633 126.762 92.0664 126.582C92.7695 126.402 93.5547 126.312 94.4219 126.312H96.9414ZM109.527 130.637C109.527 130.324 109.457 130.035 109.316 129.77C109.184 129.496 108.906 129.25 108.484 129.031C108.07 128.805 107.445 128.609 106.609 128.445C105.906 128.297 105.27 128.121 104.699 127.918C104.137 127.715 103.656 127.469 103.258 127.18C102.867 126.891 102.566 126.551 102.355 126.16C102.145 125.77 102.039 125.312 102.039 124.789C102.039 124.289 102.148 123.816 102.367 123.371C102.594 122.926 102.91 122.531 103.316 122.188C103.73 121.844 104.227 121.574 104.805 121.379C105.383 121.184 106.027 121.086 106.738 121.086C107.754 121.086 108.621 121.266 109.34 121.625C110.059 121.984 110.609 122.465 110.992 123.066C111.375 123.66 111.566 124.32 111.566 125.047H109.398C109.398 124.695 109.293 124.355 109.082 124.027C108.879 123.691 108.578 123.414 108.18 123.195C107.789 122.977 107.309 122.867 106.738 122.867C106.137 122.867 105.648 122.961 105.273 123.148C104.906 123.328 104.637 123.559 104.465 123.84C104.301 124.121 104.219 124.418 104.219 124.73C104.219 124.965 104.258 125.176 104.336 125.363C104.422 125.543 104.57 125.711 104.781 125.867C104.992 126.016 105.289 126.156 105.672 126.289C106.055 126.422 106.543 126.555 107.137 126.688C108.176 126.922 109.031 127.203 109.703 127.531C110.375 127.859 110.875 128.262 111.203 128.738C111.531 129.215 111.695 129.793 111.695 130.473C111.695 131.027 111.578 131.535 111.344 131.996C111.117 132.457 110.785 132.855 110.348 133.191C109.918 133.52 109.402 133.777 108.801 133.965C108.207 134.145 107.539 134.234 106.797 134.234C105.68 134.234 104.734 134.035 103.961 133.637C103.188 133.238 102.602 132.723 102.203 132.09C101.805 131.457 101.605 130.789 101.605 130.086H103.785C103.816 130.68 103.988 131.152 104.301 131.504C104.613 131.848 104.996 132.094 105.449 132.242C105.902 132.383 106.352 132.453 106.797 132.453C107.391 132.453 107.887 132.375 108.285 132.219C108.691 132.062 109 131.848 109.211 131.574C109.422 131.301 109.527 130.988 109.527 130.637ZM116.723 116V134H114.543V116H116.723ZM124.469 121.32L118.938 127.238L115.844 130.449L115.668 128.141L117.883 125.492L121.82 121.32H124.469ZM122.488 134L117.965 127.953L119.09 126.02L125.043 134H122.488ZM131.734 134.234C130.852 134.234 130.051 134.086 129.332 133.789C128.621 133.484 128.008 133.059 127.492 132.512C126.984 131.965 126.594 131.316 126.32 130.566C126.047 129.816 125.91 128.996 125.91 128.105V127.613C125.91 126.582 126.062 125.664 126.367 124.859C126.672 124.047 127.086 123.359 127.609 122.797C128.133 122.234 128.727 121.809 129.391 121.52C130.055 121.23 130.742 121.086 131.453 121.086C132.359 121.086 133.141 121.242 133.797 121.555C134.461 121.867 135.004 122.305 135.426 122.867C135.848 123.422 136.16 124.078 136.363 124.836C136.566 125.586 136.668 126.406 136.668 127.297V128.27H127.199V126.5H134.5V126.336C134.469 125.773 134.352 125.227 134.148 124.695C133.953 124.164 133.641 123.727 133.211 123.383C132.781 123.039 132.195 122.867 131.453 122.867C130.961 122.867 130.508 122.973 130.094 123.184C129.68 123.387 129.324 123.691 129.027 124.098C128.73 124.504 128.5 125 128.336 125.586C128.172 126.172 128.09 126.848 128.09 127.613V128.105C128.09 128.707 128.172 129.273 128.336 129.805C128.508 130.328 128.754 130.789 129.074 131.188C129.402 131.586 129.797 131.898 130.258 132.125C130.727 132.352 131.258 132.465 131.852 132.465C132.617 132.465 133.266 132.309 133.797 131.996C134.328 131.684 134.793 131.266 135.191 130.742L136.504 131.785C136.23 132.199 135.883 132.594 135.461 132.969C135.039 133.344 134.52 133.648 133.902 133.883C133.293 134.117 132.57 134.234 131.734 134.234ZM141.367 123.312V134H139.199V121.32H141.309L141.367 123.312ZM145.328 121.25L145.316 123.266C145.137 123.227 144.965 123.203 144.801 123.195C144.645 123.18 144.465 123.172 144.262 123.172C143.762 123.172 143.32 123.25 142.938 123.406C142.555 123.562 142.23 123.781 141.965 124.062C141.699 124.344 141.488 124.68 141.332 125.07C141.184 125.453 141.086 125.875 141.039 126.336L140.43 126.688C140.43 125.922 140.504 125.203 140.652 124.531C140.809 123.859 141.047 123.266 141.367 122.75C141.688 122.227 142.094 121.82 142.586 121.531C143.086 121.234 143.68 121.086 144.367 121.086C144.523 121.086 144.703 121.105 144.906 121.145C145.109 121.176 145.25 121.211 145.328 121.25Z" fill="#FEFDFB"/>
</svg>
